<svg height="511pt" style="fill: #FFF;" viewBox="-30 0 511 511.99975" width="511pt" xmlns="http://www.w3.org/2000/svg"><path d="m90.960938 90h60v30h-60zm0 0"/><path d="m75.960938 210c-8.28125 0-15-6.722656-15-15 0-8.28125 6.71875-15 15-15h239.996093c8.289063 0 15 6.71875 15 15 0 8.277344-6.710937 15-15 15h75v-175c0-19.300781-15.699219-35-35-35h-320.457031c-19.300781 0-35 15.699219-35 35v349.996094c0 19.300781 15.699219 35 35 35h115.460938v-104.996094c0 8.277344-6.710938 15-15 15h-60c-8.28125 0-15-6.722656-15-15 0-8.28125 6.71875-15 15-15h60c8.289062 0 15 6.71875 15 15v-50c0-30.332031 24.667968-55 54.996093-55zm149.996093-150h90c8.289063 0 15 6.71875 15 15s-6.710937 15-15 15h-90c-8.277343 0-15-6.71875-15-15s6.722657-15 15-15zm0 60h90c8.289063 0 15 6.71875 15 15 0 8.277344-6.710937 15-15 15h-90c-8.277343 0-15-6.722656-15-15 0-8.28125 6.722657-15 15-15zm-164.996093-45c0-8.28125 6.71875-15 15-15h89.996093c8.292969 0 15 6.71875 15 15v60c0 8.277344-6.707031 15-15 15h-89.996093c-8.28125 0-15-6.722656-15-15zm75 195h-60c-8.28125 0-15-6.722656-15-15 0-8.28125 6.71875-15 15-15h60c8.289062 0 15 6.71875 15 15 0 8.277344-6.710938 15-15 15zm0 0"/><path d="m425.957031 240h-219.996093c-13.785157 0-25 11.214844-25 25v159.996094c0 13.785156 11.214843 25 25 25h35v47c0 13.726562 16.875 20.125 26.042968 10.152344l52.519532-57.152344h106.433593c13.785157 0 25-11.214844 25-25v-159.996094c0-13.785156-11.214843-25-25-25zm-83 149.996094h-86.996093c-8.285157 0-15-6.714844-15-15 0-8.28125 6.714843-15 15-15h86.996093c8.285157 0 15 6.71875 15 15 0 8.285156-6.714843 15-15 15zm33-59.996094h-119.996093c-8.285157 0-15-6.71875-15-15 0-8.285156 6.714843-15 15-15h119.996093c8.285157 0 15 6.714844 15 15 0 8.28125-6.714843 15-15 15zm0 0"/></svg>